<?xml version="1.0" ?><!DOCTYPE svg  PUBLIC '-//W3C//DTD SVG 1.1//EN'  'http://www.w3.org/Graphics/SVG/1.1/DTD/svg11.dtd'><svg enable-background="new 0 0 48 48" height="48px" version="1.1" viewBox="0 0 48 48" width="48px" xml:space="preserve" xmlns="http://www.w3.org/2000/svg" xmlns:xlink="http://www.w3.org/1999/xlink"><g id="Layer_3"><g><path d="M45.362,21.484l-13.823,4.453v-7.591H0.125V45.99h31.414v-7.383l13.823,4.244h2.513V21.484H45.362z     M45.362,39.707L31.539,35.99h-2.513v7.487H2.638V20.859h26.388v7.645h2.513l13.823-3.98V39.707z" fill="#241F20"/><path d="M6.408,14.576c3.47,0,6.283-2.813,6.283-6.283S9.877,2.01,6.408,2.01S0.125,4.823,0.125,8.293    S2.938,14.576,6.408,14.576z M6.408,4.523c2.082,0,3.77,1.688,3.77,3.77c0,2.082-1.688,3.77-3.77,3.77    c-2.082,0-3.77-1.688-3.77-3.77C2.638,6.211,4.326,4.523,6.408,4.523z" fill="#241F20"/><path d="M25.361,14.576c3.469,0,6.282-2.813,6.282-6.283S28.83,2.01,25.361,2.01c-3.47,0-6.283,2.813-6.283,6.283    S21.891,14.576,25.361,14.576z M25.361,4.523c2.082,0,3.77,1.688,3.77,3.77c0,2.082-1.688,3.77-3.77,3.77    c-2.083,0-3.77-1.688-3.77-3.77C21.591,6.211,23.278,4.523,25.361,4.523z" fill="#241F20"/></g></g></svg>