<svg id="Layer_1" data-name="Layer 1" xmlns="http://www.w3.org/2000/svg" viewBox="0 0 28 17.57"><defs><style>.cls-1{fill:#957df5;}</style></defs><path class="cls-1" d="M12.3,15.24a46.29,46.29,0,0,1-.61,4.63.5.5,0,0,1-.18,0h0c-.51,0-.72-.56-1.46-3.81-.26-1.12-.34-1.63-.64-2.62-.12-.4-.26-.81-.42-.81s-.23.44-.39,1c-.24.9-.66,2.49-1.27,2.51-.37,0-.57-.23-.77-.49-.43-.53-.48-.55-.78-.72a3.15,3.15,0,0,0-1.87-.29A4.32,4.32,0,0,0,2.48,15h0a1,1,0,0,1-.4.12c-.12,0,.13-.17.3-.26a3.54,3.54,0,0,1,1-.34h0a4.5,4.5,0,0,1,2.5.22c.76.36,1.08,1,1.43.92l.12,0a.68.68,0,0,0,.36-.44,9.08,9.08,0,0,0,.42-1.66c.08-.66.38-1.76.72-1.78.49,0,1.22,2.17,1.71,4.31.15.65.32,1.13.49,1.69.07.23.53.21.57,0,0-.08,0-.18,0-.29.11-1.07.19-2.2.26-3.51s.16-2.82.28-3.88a8.85,8.85,0,0,1,.2-1.29c.08-.34.19-.66.54-.67s.51.3.63.62A12.94,12.94,0,0,1,14,10c.22,1.05.46,2.44.71,3.92a20.55,20.55,0,0,0,.64,2.73,3.11,3.11,0,0,0,.48,1,.6.6,0,0,0,.66.22c.15,0,.26-.26.41-.78a31.86,31.86,0,0,0,.61-4.57c.16-1.69.31-3.28.48-4.46a14.47,14.47,0,0,1,.26-1.43c.1-.38.22-.71.58-.71h0c.37,0,.51.32.66,1,.11.48.21,1.17.33,2.1.21,1.72.4,4,.59,6.22a27.54,27.54,0,0,0,.55,4c0,.18.1.36.12.52a.16.16,0,0,0,.31,0h0a18.28,18.28,0,0,0,.37-2.92c.54-6.38.67-6.94,1.23-6.94h0c.33,0,.45.3.54.63a11.61,11.61,0,0,1,.25,1.21c.16,1,.32,2.29.47,3.55.06.51.12,1.06.19,1.58,0,.28.58.28.62,0v0c.1-.8.21-1.64.32-2.26a5.26,5.26,0,0,1,.18-.77c.06-.18.15-.46.48-.46s.36.21.45.46a1.42,1.42,0,0,0,.74,1,2.63,2.63,0,0,0,.78.15c.27,0,.5-.08.85-.09A3.51,3.51,0,0,1,30,14.77c.06,0,.07.09,0,.12l-.34.07h0a4.8,4.8,0,0,1-.64.21,3.69,3.69,0,0,1-1,.15,3.31,3.31,0,0,1-1.05-.15,1.57,1.57,0,0,1-.49-.3c-.17-.16-.51-.08-.54.11-.1.6-.19,1.3-.26,1.89-.1.78-.2,1.52-.3,2.09a5.48,5.48,0,0,1-.15.69c-.05.16-.13.42-.44.43s-.43-.3-.5-.56-.13-.58-.21-1c-.13-.85-.27-2-.41-3.17s-.27-1.54-.42-2.53c0-.19-.38-.17-.4,0s-.07.27-.08.42c-.14,1.23-.27,2.08-.39,3.62-.34,4.21.11,6.35-1,6.62l-.11,0a.33.33,0,0,1-.14,0c-.26-.1-.43-.53-.5-.85s-.17-1-.27-1.81c-.17-1.51-.34-3.48-.52-5.57-.3-3.56-.3-4.67-.51-5.14A.68.68,0,0,0,19,9.84a.27.27,0,0,0-.34,0,1,1,0,0,0-.26.52c-.18,1-.24,1.18-.36,2.18-.23,2-.4,4.14-.64,5.76a15.88,15.88,0,0,1-.41,2c-.17.56-.37.93-.78.94h0c-.44,0-.78-.4-1.25-2.45-.31-1.36-.61-3.14-.9-4.85-.23-1.37-.32-2-.54-3a.56.56,0,0,0-.31-.42c-.09,0-.21.1-.28.27a3.61,3.61,0,0,0-.25.86c0,.1-.14,1.23-.19,1.62C12.35,14.33,12.38,14.72,12.3,15.24Z" transform="translate(-2 -5.91)"/></svg>