<?xml version="1.0" encoding="utf-8"?>
<!-- Generator: Adobe Illustrator 25.2.3, SVG Export Plug-In . SVG Version: 6.00 Build 0)  -->
<svg version="1.1" id="Layer_1" xmlns="http://www.w3.org/2000/svg" xmlns:xlink="http://www.w3.org/1999/xlink" x="0px" y="0px"
	 viewBox="0 0 150 100" style="enable-background:new 0 0 150 100;" xml:space="preserve">
<style type="text/css">
	.st0{fill:url(#SVGID_1_);stroke:#000000;stroke-width:0.25;stroke-miterlimit:10;}
	.st1{fill:url(#SVGID_2_);stroke:#000000;stroke-width:0.25;stroke-miterlimit:10;}
	.st2{fill:url(#SVGID_3_);stroke:#000000;stroke-width:0.25;stroke-miterlimit:10;}
	.st3{fill:url(#SVGID_4_);stroke:#000000;stroke-width:0.25;stroke-miterlimit:10;}
	.st4{fill:url(#SVGID_5_);stroke:#000000;stroke-width:0.25;stroke-miterlimit:10;}
	.st5{fill:url(#SVGID_6_);stroke:#000000;stroke-width:0.25;stroke-miterlimit:10;}
	.st6{fill:url(#SVGID_7_);stroke:#000000;stroke-width:0.25;stroke-miterlimit:10;}
	.st7{fill:#FFFFFF;stroke:#000000;stroke-width:3;stroke-miterlimit:10;}
</style>
<g>
	<linearGradient id="SVGID_1_" gradientUnits="userSpaceOnUse" x1="58.28" y1="69.895" x2="59.17" y2="69.895">
		<stop  offset="0" style="stop-color:#000000;stop-opacity:0"/>
		<stop  offset="0.406" style="stop-color:#000000;stop-opacity:0.6512"/>
		<stop  offset="1" style="stop-color:#000000;stop-opacity:0.95"/>
	</linearGradient>
	<polygon class="st0" points="59.17,69.9 58.28,69.9 58.28,69.89 	"/>
	<linearGradient id="SVGID_2_" gradientUnits="userSpaceOnUse" x1="28.6073" y1="49.92" x2="63.55" y2="49.92">
		<stop  offset="0" style="stop-color:#000000;stop-opacity:0"/>
		<stop  offset="0.0666" style="stop-color:#000000;stop-opacity:0.087"/>
		<stop  offset="0.4988" style="stop-color:#000000;stop-opacity:0.6512"/>
		<stop  offset="1" style="stop-color:#000000;stop-opacity:0.95"/>
	</linearGradient>
	<path class="st1" d="M63.55,18.48v3h-2.27V69.9c0,0.14-0.01,1.73-0.91,3.75c-0.88,2.02-2.73,4.46-6.19,6.01
		c-1.16,0.52-2.48,0.94-3.99,1.23c-1.52,0.3-3.23,0.47-5.16,0.47h-0.06c-3.43,0-6.17-0.54-8.35-1.43c-2.19-0.88-3.81-2.12-4.96-3.42
		c-2.31-2.62-3.17-5.41-3.04-6.22c0.1-0.59,1.16-0.93,1.93-0.84c0.27,0.02,0.5,0.1,0.65,0.23c0.57,0.52,0.83,1.92,1.66,3.37
		c0.83,1.45,2.24,3.02,4.88,4.1c1.77,0.72,4.11,1.21,7.23,1.21h0.06c3.25-0.01,5.67-0.52,7.47-1.25c1.81-0.73,3.01-1.68,3.84-2.65
		c1.67-1.92,1.91-4.02,1.94-4.49V69.9h0.89l-0.89-0.01V21.48H39.93v-3H63.55z"/>
	<linearGradient id="SVGID_3_" gradientUnits="userSpaceOnUse" x1="58.28" y1="69.895" x2="59.17" y2="69.895">
		<stop  offset="0" style="stop-color:#000000;stop-opacity:0"/>
		<stop  offset="0.406" style="stop-color:#000000;stop-opacity:0.6512"/>
		<stop  offset="1" style="stop-color:#000000;stop-opacity:0.95"/>
	</linearGradient>
	<polygon class="st2" points="59.17,69.9 58.28,69.9 58.28,69.89 	"/>
	<linearGradient id="SVGID_4_" gradientUnits="userSpaceOnUse" x1="118.45" y1="24.82" x2="118.47" y2="24.82">
		<stop  offset="0" style="stop-color:#000000;stop-opacity:0"/>
		<stop  offset="0.406" style="stop-color:#000000;stop-opacity:0.6512"/>
		<stop  offset="1" style="stop-color:#000000;stop-opacity:0.95"/>
	</linearGradient>
	<polyline class="st3" points="118.47,24.82 118.45,24.79 118.45,24.85 	"/>
	<linearGradient id="SVGID_5_" gradientUnits="userSpaceOnUse" x1="118.43" y1="24.73" x2="118.43" y2="24.73">
		<stop  offset="0" style="stop-color:#000000;stop-opacity:0"/>
		<stop  offset="0.406" style="stop-color:#000000;stop-opacity:0.6512"/>
		<stop  offset="1" style="stop-color:#000000;stop-opacity:0.95"/>
	</linearGradient>
	<path class="st4" d="M118.43,24.73L118.43,24.73z"/>
	<linearGradient id="SVGID_6_" gradientUnits="userSpaceOnUse" x1="84.7" y1="49.83" x2="123.39" y2="49.83">
		<stop  offset="0" style="stop-color:#000000;stop-opacity:0"/>
		<stop  offset="0.019" style="stop-color:#000000;stop-opacity:0.0946"/>
		<stop  offset="0.1305" style="stop-color:#000000;stop-opacity:0.6512"/>
		<stop  offset="0.9447" style="stop-color:#000000;stop-opacity:0.95"/>
	</linearGradient>
	<path class="st5" d="M123.39,76.02c0,0.43-0.07,0.61-0.24,0.94c-0.17,0.33-0.42,0.64-0.76,0.94c-0.7,0.6-1.75,1.17-3.56,1.77
		c-1.07,0.35-2.38,0.61-3.79,0.83c-1.41,0.21-2.9,0.38-4.28,0.5c-2.75,0.26-5.02,0.36-5.03,0.36h-0.11c-0.02,0-1.52-0.05-3.63-0.24
		c-2.11-0.2-4.83-0.54-7.32-1.16c-1.67-0.42-3.24-0.95-4.53-1.73c-0.68-0.41-1.28-0.9-1.74-1.54c-0.95-1.05-1.54-2.42-2.02-4.01
		c-0.48-1.59-0.81-3.42-1.06-5.34c-0.49-3.86-0.62-8.14-0.62-11.65c0-3.79,0.15-6.67,0.18-7.08c0-0.03,0-0.05,0-0.05
		c0.02-0.66,0.21-7.39,1.01-13.45c0.28-2.13,0.63-4.17,1.09-5.88c0.26-0.95,0.55-1.8,0.92-2.54l0.03-0.07
		c1.38-2.72,3.62-4.85,6.48-6.24c2.86-1.39,6.34-2.08,10.33-2.08h0.12c4.34,0,7.51,0.4,9.87,1c2.35,0.6,3.9,1.41,4.93,2.28
		c0.69,0.57,1.14,1.17,1.4,1.7c0.36,0.7,0.4,1.26,0.4,1.45c0,0,0.43,3.78,0,4.82c-0.21,0.54-0.83,0.85-1.46,0.87
		c-0.61,0.01-1.23-0.25-1.54-0.87c-0.38-1.2,0.32-3.51-0.01-4.7l-0.39-0.66c-0.67-0.72-1.8-1.5-4.79-2.15
		c-1.99-0.44-4.72-0.74-8.41-0.74h-0.12c-3.65,0-6.67,0.64-9.02,1.78c-2.34,1.15-4.03,2.78-5.12,4.9c-0.42,0.82-0.87,2.37-1.21,4.18
		c-0.35,1.81-0.62,3.92-0.84,6c-0.42,4.17-0.6,8.24-0.65,9.83c-0.02,0.45-0.03,0.7-0.03,0.7v0.05c0,0-0.01,0.17-0.02,0.51
		c-0.02,0.34-0.04,0.84-0.06,1.46c-0.05,1.24-0.09,2.99-0.09,4.98c0,2.58,0.07,5.58,0.31,8.45c0.23,2.88,0.63,5.64,1.24,7.68
		c0.4,1.35,0.92,2.37,1.36,2.85c0,0,0.5,0.12,0.09,0.08c-0.41-0.04,0.06,0.1,0.06,0.1c0.13,0.21,0.41,0.48,0.85,0.76
		s1.02,0.55,1.69,0.8c1.35,0.51,3.07,0.9,4.77,1.19c3.4,0.57,6.78,0.73,7.49,0.75c0.04,0,0.08,0.01,0.1,0.01c0.03,0,0.04,0,0.04,0
		c0.03,0,0.07-0.01,0.11-0.01c0.15-0.01,0.36-0.02,0.62-0.03c0.53-0.03,1.28-0.08,2.16-0.15c1.76-0.13,4.02-0.34,6-0.64
		c1.32-0.2,2.95-0.55,3.66-0.93l1.98-1.06c0.57-0.34,1.13-0.43,1.62-0.38C122.74,75.21,123.39,75.73,123.39,76.02z"/>
	<linearGradient id="SVGID_7_" gradientUnits="userSpaceOnUse" x1="121.7667" y1="76.0195" x2="121.7667" y2="76.0195">
		<stop  offset="0" style="stop-color:#000000;stop-opacity:0"/>
		<stop  offset="0.406" style="stop-color:#000000;stop-opacity:0.6512"/>
		<stop  offset="1" style="stop-color:#000000;stop-opacity:0.95"/>
	</linearGradient>
	<path class="st6" d="M121.77,76.02L121.77,76.02z"/>
</g>
<path class="st7" d="M116.28,79.47"/>
</svg>
