<?xml version="1.0" encoding="utf-8"?>
<!-- Generator: Adobe Illustrator 25.2.3, SVG Export Plug-In . SVG Version: 6.00 Build 0)  -->
<svg version="1.1" id="Layer_1" xmlns="http://www.w3.org/2000/svg" xmlns:xlink="http://www.w3.org/1999/xlink" x="0px" y="0px"
	 viewBox="0 0 28 17.6" style="enable-background:new 0 0 28 17.6;" xml:space="preserve">
<style type="text/css">
	.st0{fill:#333333;}
</style>
<path class="st0" d="M11.8,7.8c0-0.4,0.2-1.3,0.2-1.5c0-0.3,0.1-0.5,0.2-0.8c0.1-0.2,0.2-0.3,0.3-0.3c0.2,0.1,0.3,0.2,0.3,0.4
	c0.2,0.9,0.3,1.5,0.5,2.8c0.3,1.6,0.5,3.2,0.8,4.5c0.4,1.9,0.8,2.3,1.2,2.3l0,0c0.4,0,0.6-0.4,0.7-0.9c0.2-0.6,0.3-1.2,0.4-1.9
	c0.2-1.5,0.4-3.5,0.6-5.3c0.1-0.9,0.2-1.1,0.3-2c0-0.2,0.1-0.3,0.2-0.5c0.1-0.1,0.2-0.1,0.3,0c0.1,0,0.2,0.1,0.3,0.3
	c0.2,0.4,0.2,1.5,0.5,4.8c0.2,1.9,0.3,3.8,0.5,5.2c0.1,0.8,0.2,1.4,0.3,1.7c0.1,0.3,0.2,0.7,0.5,0.8c0,0,0.1,0,0.1,0H20
	c1-0.3,0.6-2.2,0.9-6.1c0.1-1.4,0.2-2.2,0.4-3.4c0-0.1,0.1-0.2,0.1-0.4c0-0.2,0.4-0.2,0.4,0c0.1,0.9,0.3,1.3,0.4,2.3
	c0.1,1.1,0.3,2.1,0.4,2.9c0.1,0.4,0.1,0.7,0.2,0.9c0.1,0.2,0.2,0.5,0.5,0.5c0.3,0,0.4-0.3,0.4-0.4c0.1-0.2,0.1-0.4,0.1-0.6
	c0.1-0.5,0.2-1.2,0.3-1.9c0.1-0.5,0.1-1.2,0.2-1.8c0-0.2,0.3-0.3,0.5-0.1c0.1,0.1,0.3,0.2,0.5,0.3c0.3,0.1,0.6,0.1,1,0.1
	c0.3,0,0.6-0.1,0.9-0.1c0.2-0.1,0.4-0.1,0.6-0.2l0,0L28,9.3c0.1,0,0.1-0.1,0-0.1c-0.4,0-0.7,0-1.1,0.1c-0.3,0-0.5,0.1-0.8,0.1
	c-0.2,0-0.5-0.1-0.7-0.1c-0.4-0.2-0.6-0.5-0.7-0.9c-0.1-0.2-0.1-0.4-0.4-0.4c-0.3,0-0.4,0.3-0.4,0.4c-0.1,0.2-0.1,0.5-0.2,0.7
	c-0.1,0.6-0.2,1.4-0.3,2.1l0,0c0,0.3-0.6,0.3-0.6,0c-0.1-0.5-0.1-1-0.2-1.5c-0.1-1.2-0.3-2.4-0.4-3.3C22.2,6,22.1,5.6,22,5.2
	c-0.1-0.3-0.2-0.6-0.5-0.6l0,0c-0.5,0-0.6,0.5-1.1,6.4c0,0.9-0.2,1.8-0.3,2.7l0,0c0,0.1-0.1,0.1-0.1,0.1c-0.1,0-0.2,0-0.2-0.1
	c0-0.1-0.1-0.3-0.1-0.5c-0.3-1.2-0.4-2.5-0.5-3.7c-0.2-2.1-0.4-4.2-0.5-5.8c-0.1-0.9-0.2-1.5-0.3-1.9C18.1,1.3,18,1,17.7,1l0,0
	c-0.3,0-0.4,0.3-0.5,0.7C17,2.1,16.9,2.5,16.9,3c-0.2,1.1-0.3,2.6-0.4,4.1c-0.1,1.4-0.3,2.8-0.6,4.2c-0.1,0.5-0.2,0.7-0.4,0.7
	c-0.2,0.1-0.5,0-0.6-0.2c-0.2-0.3-0.4-0.6-0.4-0.9c-0.3-0.8-0.5-1.7-0.6-2.5c-0.2-1.4-0.5-2.7-0.7-3.6C13.1,4.4,13,4,12.8,3.6
	C12.7,3.3,12.6,3,12.2,3c-0.3,0-0.4,0.3-0.5,0.6c-0.1,0.4-0.2,0.8-0.2,1.2c-0.1,1-0.2,2.4-0.3,3.6s0,1.7-0.1,2.7
	c0,0.1-0.1,1-0.2,1.2c-0.2,0.1-0.3-0.2-0.4-0.4c-0.2-0.5-0.3-1-0.5-1.6c-0.5-2-1.1-4-1.6-4c-0.3,0-0.6,1-0.7,1.6
	c-0.1,0.5-0.2,1-0.4,1.5c0,0.2-0.2,0.3-0.3,0.4H7c-0.3,0.1-0.6-0.5-1.3-0.9C4.9,8.9,4.1,8.8,3.3,8.9l0,0C3,9,2.7,9.1,2.4,9.3
	C2.3,9.3,2,9.5,2.1,9.5c0.1,0,0.3,0,0.4-0.1l0,0C2.9,9.2,3.4,9.1,3.8,9C4.4,9,5,9.1,5.6,9.3C5.8,9.5,5.9,9.5,6.3,10
	c0.2,0.2,0.4,0.5,0.7,0.5c0.6,0,1-1.5,1.2-2.3c0.1-0.5,0.2-0.9,0.4-0.9c0.1,0,0.3,0.4,0.4,0.8c0.3,0.9,0.4,1.4,0.6,2.4
	c0.7,3,0.9,3.5,1.4,3.5l0,0c0,0,0.1,0,0.4-0.3c0.2-0.2,0.3-2.6,0.4-4C11.7,9.1,11.7,8.8,11.8,7.8z"/>
</svg>
